<svg width="142" height="50" viewBox="0 0 142 50" fill="none" xmlns="http://www.w3.org/2000/svg">
<path fill-rule="evenodd" clip-rule="evenodd" d="M138.607 21.5154C133.63 30.374 121.112 32.9771 115.474 33.1714C106.765 33.4822 103.421 28.509 102.838 25.9836C102.19 22.9401 103.071 15.4155 111.78 9.66533C120.49 3.91508 130.313 4.93822 134.136 6.16856C137.7 7.59317 143.584 12.657 138.607 21.5154ZM128.888 22.6813C132.309 17.7081 131.999 13.1622 130.832 11.2196C126.943 5.39168 119.362 10.6369 118.39 11.4139C117.418 12.1909 112.558 16.6591 111.78 22.2928C111.003 27.9265 114.502 29.092 117.224 29.2863C119.945 29.4805 124.611 28.8978 128.888 22.6813ZM77.3715 32.5886C69.5954 31.8114 68.1698 26.1778 68.429 23.4581C68.4444 22.6811 68.8243 21.1917 69.0123 20.5441C71.656 13.0844 79.3155 8.62924 82.8148 7.33414C89.191 4.2259 96.7468 6.68659 99.7276 8.30545L101.088 6.55708H106.337L102.449 16.8532H97.006C97.4595 15.0399 97.667 11.1418 94.8675 10.0538C91.3683 8.69399 84.5643 9.66532 81.065 14.7162C78.2657 18.7569 77.5659 22.8753 77.5659 24.4295C77.5659 29.2472 83.1388 29.5451 85.9252 29.0918C90.4352 28.1593 91.5627 23.7819 91.5627 21.7097H86.8972L88.0635 18.4073H103.032L101.866 21.904H100.311L96.0339 31.8114H90.5908L90.7847 30.2597C90.7678 30.3315 90.0123 30.7362 87.0916 31.8114C84.1366 32.8994 79.3803 32.7828 77.3715 32.5886ZM1.94401 11.6079L2.33282 31.423H8.35924L17.3018 20.9325L17.1074 31.423H23.1337L39.4634 10.4423H40.6296L41.9905 7.33411H32.8537L31.4929 10.4423H33.4369L24.6889 22.6811V10.4423H27.4106L28.7713 7.33411H16.524L15.1632 10.4423C15.1632 10.4423 16.7184 10.3776 17.1074 10.6366C17.496 10.8956 17.496 11.4136 17.496 11.4136V13.939L9.52563 23.6523V11.2194C9.52563 11.2194 10.4976 10.2481 11.0808 10.0538C11.664 9.85955 12.0528 7.33411 12.0528 7.33411H0.972004L0 10.4423H1.7496L1.94401 11.6079ZM43.3513 11.9964L37.325 27.3434C37.0658 27.7319 36.2363 28.47 34.9921 28.3147L33.8258 31.423H63.7634L67.8459 21.1268H63.7634C63.1802 23.3933 60.8862 27.9262 56.3762 27.9262H44.5178L47.6282 20.3499H51.7105C52.6826 20.4146 54.2766 21.2046 52.8769 23.8466L52.4882 24.4295H56.3762L61.0418 13.3564H56.9594C56.7002 14.5867 55.7152 17.0475 53.849 17.0475H48.7945L51.5161 10.4423H63.1802C64.217 10.4423 66.2906 11.1028 66.2906 13.7447L65.7073 16.8531H69.7898L73.4834 7.33411H42.9625L41.9905 10.4423C42.5738 10.3776 43.6623 10.5977 43.3513 11.9964Z" fill="white"/>
<path d="M2.20381 48.5201V42.9976H0.332031V42.3399H4.8597V42.9976H2.98793V48.5201H2.20381ZM6.12975 48.5201V42.3399H6.91387V44.9284H9.79741V42.3399H10.573V48.5201H9.79741V45.6029H6.91387V48.5201H6.12975ZM12.4325 48.5201V42.3399H15.999V42.9976H13.2166V44.9368H15.5606V45.6029H13.2166V47.8541H16.0917V48.5201H12.4325ZM19.612 48.5201V42.3399H21.4501C22.7064 42.3399 23.5748 42.7615 23.5748 43.8491C23.5748 44.4646 23.246 45.0042 22.6642 45.1897V45.2319C23.4062 45.3752 23.9289 45.8642 23.9289 46.7074C23.9289 47.9215 22.9677 48.5201 21.585 48.5201H19.612ZM20.3962 44.9705H21.3152C22.3775 44.9705 22.8075 44.5742 22.8075 43.9503C22.8075 43.2252 22.3101 42.9554 21.3489 42.9554H20.3962V44.9705ZM20.3962 47.8962H21.4754C22.5377 47.8962 23.1617 47.5168 23.1617 46.6821C23.1617 45.9148 22.5546 45.5691 21.4754 45.5691H20.3962V47.8962ZM25.322 48.5201V42.3399H26.1061V47.8541H28.8042V48.5201H25.322ZM32.0983 48.6297C30.5469 48.6297 29.4593 47.3903 29.4593 45.409C29.4593 43.4276 30.5469 42.2219 32.0983 42.2219C33.6497 42.2219 34.7373 43.4276 34.7373 45.409C34.7373 47.3903 33.6497 48.6297 32.0983 48.6297ZM32.0983 47.9468C33.2028 47.9468 33.9363 46.9519 33.9363 45.409C33.9363 43.8576 33.2028 42.9048 32.0983 42.9048C30.9853 42.9048 30.2602 43.8576 30.2602 45.409C30.2602 46.9519 30.9853 47.9468 32.0983 47.9468ZM38.5246 48.6297C36.9732 48.6297 35.8856 47.3903 35.8856 45.409C35.8856 43.4276 36.9732 42.2219 38.5246 42.2219C40.076 42.2219 41.1636 43.4276 41.1636 45.409C41.1636 47.3903 40.076 48.6297 38.5246 48.6297ZM38.5246 47.9468C39.6291 47.9468 40.3626 46.9519 40.3626 45.409C40.3626 43.8576 39.6291 42.9048 38.5246 42.9048C37.4117 42.9048 36.6866 43.8576 36.6866 45.409C36.6866 46.9519 37.4117 47.9468 38.5246 47.9468ZM42.666 48.5201V42.3399H44.2174C46.1144 42.3399 47.1346 43.4444 47.1346 45.409C47.1346 47.365 46.1144 48.5201 44.2511 48.5201H42.666ZM43.4501 47.8794H44.1499C45.6086 47.8794 46.3252 46.9688 46.3252 45.409C46.3252 43.8407 45.6086 42.9723 44.1499 42.9723H43.4501V47.8794ZM50.6772 48.5201V42.3399H52.4393C53.8305 42.3399 54.758 42.8036 54.758 44.1527C54.758 45.4595 53.8305 46.0666 52.4815 46.0666H51.4613V48.5201H50.6772ZM51.4613 45.4342H52.3803C53.4679 45.4342 53.9823 45.038 53.9823 44.1527C53.9823 43.2589 53.4342 42.9723 52.3466 42.9723H51.4613V45.4342ZM58.3652 48.6297C57.1089 48.6297 56.1477 47.9552 56.1477 45.9654V42.3399H56.9319V45.9907C56.9319 47.4831 57.5642 47.9468 58.3652 47.9468C59.1915 47.9468 59.8407 47.4831 59.8407 45.9907V42.3399H60.5911V45.9654C60.5911 47.9552 59.6299 48.6297 58.3652 48.6297ZM63.2023 42.9723V45.2656H64.2394C65.209 45.2656 65.7402 44.8778 65.7402 44.0768C65.7402 43.2589 65.209 42.9723 64.2394 42.9723H63.2023ZM66.7014 48.5201H65.8161L64.3153 45.898H63.2023V48.5201H62.4182V42.3399H64.3574C65.6137 42.3399 66.5159 42.7868 66.5159 44.0768C66.5159 45.038 65.9594 45.6113 65.1163 45.8137L66.7014 48.5201ZM67.9388 48.5201V42.3399H68.7229V48.5201H67.9388ZM70.5776 48.5201V42.3399H74.1441V42.9976H71.3617V45.0886H73.7225V45.7462H71.3617V48.5201H70.5776ZM75.3983 48.5201V42.3399H76.1824V48.5201H75.3983ZM80.3726 48.6297C78.838 48.6297 77.6829 47.4409 77.6829 45.4342C77.6829 43.436 78.8549 42.2219 80.4231 42.2219C81.1735 42.2219 81.7637 42.5929 82.1179 42.9891L81.6963 43.495C81.3759 43.1493 80.9628 42.9048 80.4316 42.9048C79.2596 42.9048 78.4839 43.866 78.4839 45.409C78.4839 46.9688 79.2259 47.9468 80.4063 47.9468C80.9965 47.9468 81.4433 47.6854 81.8396 47.2554L82.2696 47.7445C81.7806 48.3094 81.1735 48.6297 80.3726 48.6297ZM84.3496 46.0076H86.2214L85.9263 45.0633C85.6986 44.3635 85.5047 43.6889 85.3024 42.9723H85.2686C85.0747 43.6974 84.8724 44.3635 84.6531 45.0633L84.3496 46.0076ZM87.0055 48.5201L86.4153 46.6315H84.1557L83.5571 48.5201H82.7645L84.8639 42.3399H85.7324L87.8318 48.5201H87.0055ZM89.6519 48.5201V42.9976H87.7801V42.3399H92.3078V42.9976H90.436V48.5201H89.6519ZM93.5778 48.5201V42.3399H94.362V48.5201H93.5778ZM98.5015 48.6297C96.9501 48.6297 95.8625 47.3903 95.8625 45.409C95.8625 43.4276 96.9501 42.2219 98.5015 42.2219C100.053 42.2219 101.14 43.4276 101.14 45.409C101.14 47.3903 100.053 48.6297 98.5015 48.6297ZM98.5015 47.9468C99.606 47.9468 100.339 46.9519 100.339 45.409C100.339 43.8576 99.606 42.9048 98.5015 42.9048C97.3886 42.9048 96.6635 43.8576 96.6635 45.409C96.6635 46.9519 97.3886 47.9468 98.5015 47.9468ZM102.643 48.5201V42.3399H103.452L105.703 46.2352L106.361 47.5084H106.403C106.361 46.8844 106.302 46.1931 106.302 45.5523V42.3399H107.044V48.5201H106.243L103.992 44.6164L103.326 43.3433H103.292C103.326 43.9672 103.385 44.6248 103.385 45.2741V48.5201H102.643ZM110.95 48.5201V42.3399H114.517V42.9976H111.734V44.9368H114.078V45.6029H111.734V47.8541H114.609V48.5201H110.95ZM115.376 48.5201L117.18 45.3246L115.494 42.3399H116.354L117.197 43.9166C117.357 44.2033 117.484 44.4646 117.686 44.8188H117.72C117.888 44.4646 118.006 44.2033 118.158 43.9166L118.984 42.3399H119.802L118.116 45.3668L119.92 48.5201H119.06L118.15 46.8507C117.989 46.5472 117.821 46.2268 117.619 45.8558H117.585C117.408 46.2268 117.248 46.5472 117.087 46.8507L116.194 48.5201H115.376ZM121.077 48.5201V42.3399H122.84C124.231 42.3399 125.158 42.8036 125.158 44.1527C125.158 45.4595 124.231 46.0666 122.882 46.0666H121.862V48.5201H121.077ZM121.862 45.4342H122.781C123.868 45.4342 124.383 45.038 124.383 44.1527C124.383 43.2589 123.835 42.9723 122.747 42.9723H121.862V45.4342ZM126.573 48.5201V42.3399H130.14V42.9976H127.357V44.9368H129.701V45.6029H127.357V47.8541H130.233V48.5201H126.573ZM132.483 42.9723V45.2656H133.52C134.489 45.2656 135.021 44.8778 135.021 44.0768C135.021 43.2589 134.489 42.9723 133.52 42.9723H132.483ZM135.982 48.5201H135.097L133.596 45.898H132.483V48.5201H131.699V42.3399H133.638C134.894 42.3399 135.796 42.7868 135.796 44.0768C135.796 45.038 135.24 45.6113 134.397 45.8137L135.982 48.5201ZM138.386 48.5201V42.9976H136.514V42.3399H141.042V42.9976H139.17V48.5201H138.386Z" fill="white"/>
</svg>
